<svg xmlns="http://www.w3.org/2000/svg" viewBox="0 0 64 64">
    <defs>
        <linearGradient id="cup" x1="0" y1="0" x2="0" y2="1">
            <stop offset="0" stop-color="#ffffff"/>
            <stop offset="1" stop-color="#cfd3d9"/>
        </linearGradient>
        <linearGradient id="base" x1="0" y1="0" x2="0" y2="1">
            <stop offset="0" stop-color="#d6d9de"/>
            <stop offset="1" stop-color="#aeb3bb"/>
        </linearGradient>
        <filter id="shadow" x="-30%" y="-30%" width="160%" height="160%">
            <feDropShadow dx="0" dy="3" stdDeviation="2" flood-color="#000000" flood-opacity="0.35"/>
        </filter>
    </defs>
    <g filter="url(#shadow)">
        <path d="M18 18h28v9.5c0 8-6.4 14-14 14s-14-6-14-14V18z" fill="url(#cup)" stroke="#f2f2f2" stroke-width="1.2"/>
        <path d="M18 20h-5c0 6.5 4.2 10.8 9.8 11.7" fill="none" stroke="#e6e7ea" stroke-width="2" stroke-linecap="round"/>
        <path d="M46 20h5c0 6.5-4.2 10.8-9.8 11.7" fill="none" stroke="#e6e7ea" stroke-width="2" stroke-linecap="round"/>
        <rect x="28" y="41" width="8" height="6" rx="2" fill="url(#cup)"/>
        <rect x="22" y="48" width="20" height="6" rx="3" fill="url(#base)"/>
        <rect x="20" y="54" width="24" height="5" rx="2.5" fill="#9aa0a9"/>
    </g>
    <path d="M32 6l1.8 3.7 4.1.3-3.1 2.6.9 4-3.7-2-3.7 2 .9-4-3.1-2.6 4.1-.3z" fill="#f7f7f7"/>
    <path d="M20.5 10.5l1 2 2.2.2-1.7 1.4.5 2.1-2-1.1-2 1.1.5-2.1-1.7-1.4 2.2-.2z" fill="#eceef2"/>
    <path d="M43.5 10.5l1 2 2.2.2-1.7 1.4.5 2.1-2-1.1-2 1.1.5-2.1-1.7-1.4 2.2-.2z" fill="#eceef2"/>
</svg>
