<svg xmlns="http://www.w3.org/2000/svg" viewBox="0 0 64 64">
    <defs>
        <linearGradient id="gear" x1="0" y1="0" x2="1" y2="1">
            <stop offset="0" stop-color="#ffffff"/>
            <stop offset="1" stop-color="#cfd3d9"/>
        </linearGradient>
        <linearGradient id="core" x1="0" y1="0" x2="0" y2="1">
            <stop offset="0" stop-color="#3b3f45"/>
            <stop offset="1" stop-color="#23272d"/>
        </linearGradient>
        <filter id="shadow" x="-40%" y="-40%" width="180%" height="180%">
            <feDropShadow dx="0" dy="3" stdDeviation="2" flood-color="#000000" flood-opacity="0.35"/>
        </filter>
    </defs>
    <g filter="url(#shadow)" transform="translate(24 38)">
        <g fill="url(#gear)">
            <rect x="-1.8" y="-18" width="3.6" height="6" rx="1"/>
            <rect x="-1.8" y="-18" width="3.6" height="6" rx="1" transform="rotate(45)"/>
            <rect x="-1.8" y="-18" width="3.6" height="6" rx="1" transform="rotate(90)"/>
            <rect x="-1.8" y="-18" width="3.6" height="6" rx="1" transform="rotate(135)"/>
            <rect x="-1.8" y="-18" width="3.6" height="6" rx="1" transform="rotate(180)"/>
            <rect x="-1.8" y="-18" width="3.6" height="6" rx="1" transform="rotate(225)"/>
            <rect x="-1.8" y="-18" width="3.6" height="6" rx="1" transform="rotate(270)"/>
            <rect x="-1.8" y="-18" width="3.6" height="6" rx="1" transform="rotate(315)"/>
            <circle cx="0" cy="0" r="12.5" stroke="#f2f2f2" stroke-width="1"/>
        </g>
        <circle cx="0" cy="0" r="4.4" fill="url(#core)"/>
        <circle cx="-3" cy="-4" r="2.2" fill="#ffffff" opacity="0.25"/>
    </g>
    <g filter="url(#shadow)" transform="translate(44 22) scale(0.7)">
        <g fill="url(#gear)">
            <rect x="-1.6" y="-13.5" width="3.2" height="5.6" rx="1"/>
            <rect x="-1.6" y="-13.5" width="3.2" height="5.6" rx="1" transform="rotate(60)"/>
            <rect x="-1.6" y="-13.5" width="3.2" height="5.6" rx="1" transform="rotate(120)"/>
            <rect x="-1.6" y="-13.5" width="3.2" height="5.6" rx="1" transform="rotate(180)"/>
            <rect x="-1.6" y="-13.5" width="3.2" height="5.6" rx="1" transform="rotate(240)"/>
            <rect x="-1.6" y="-13.5" width="3.2" height="5.6" rx="1" transform="rotate(300)"/>
            <circle cx="0" cy="0" r="9" stroke="#f2f2f2" stroke-width="1"/>
        </g>
        <circle cx="0" cy="0" r="3.4" fill="url(#core)"/>
    </g>
    <g filter="url(#shadow)" transform="translate(46 48) scale(0.58)">
        <g fill="url(#gear)">
            <rect x="-1.4" y="-11.5" width="2.8" height="4.8" rx="0.9"/>
            <rect x="-1.4" y="-11.5" width="2.8" height="4.8" rx="0.9" transform="rotate(60)"/>
            <rect x="-1.4" y="-11.5" width="2.8" height="4.8" rx="0.9" transform="rotate(120)"/>
            <rect x="-1.4" y="-11.5" width="2.8" height="4.8" rx="0.9" transform="rotate(180)"/>
            <rect x="-1.4" y="-11.5" width="2.8" height="4.8" rx="0.9" transform="rotate(240)"/>
            <rect x="-1.4" y="-11.5" width="2.8" height="4.8" rx="0.9" transform="rotate(300)"/>
            <circle cx="0" cy="0" r="7.2" stroke="#f2f2f2" stroke-width="1"/>
        </g>
        <circle cx="0" cy="0" r="2.8" fill="url(#core)"/>
    </g>
</svg>
